<svg width="23" height="22" viewBox="0 0 23 22" fill="none" xmlns="http://www.w3.org/2000/svg">
<path fill-rule="evenodd" clip-rule="evenodd" d="M2.21948 10.9856C2.21948 10.8098 2.28932 10.6412 2.41364 10.5168C2.53797 10.3925 2.70658 10.3227 2.8824 10.3227L18.5179 10.3227L14.3455 6.15162C14.221 6.02714 14.1511 5.85831 14.1511 5.68228C14.1511 5.50624 14.221 5.33741 14.3455 5.21293C14.47 5.08846 14.6388 5.01853 14.8148 5.01853C14.9909 5.01853 15.1597 5.08846 15.2842 5.21293L20.5875 10.5162C20.6492 10.5778 20.6982 10.651 20.7316 10.7315C20.765 10.812 20.7822 10.8984 20.7822 10.9856C20.7822 11.0728 20.765 11.1591 20.7316 11.2397C20.6982 11.3202 20.6492 11.3933 20.5875 11.4549L15.2842 16.7582C15.1597 16.8827 14.9909 16.9526 14.8148 16.9526C14.6388 16.9526 14.47 16.8827 14.3455 16.7582C14.221 16.6338 14.1511 16.4649 14.1511 16.2889C14.1511 16.1128 14.221 15.944 14.3455 15.8195L18.5179 11.6485L2.8824 11.6485C2.70658 11.6485 2.53797 11.5787 2.41364 11.4543C2.28932 11.33 2.21948 11.1614 2.21948 10.9856Z" fill="white"/>
</svg>
