<svg width="25" height="25" viewBox="0 0 25 25" fill="none" xmlns="http://www.w3.org/2000/svg">
<path d="M22.5 8.03497V17.5C22.5 18.2652 22.2077 19.0015 21.6827 19.5582C21.1578 20.115 20.4399 20.4501 19.676 20.495L19.5 20.5H5.5C4.73479 20.5 3.99849 20.2076 3.44174 19.6827C2.88499 19.1577 2.54989 18.4399 2.505 17.676L2.5 17.5V8.03497L11.945 14.332L12.061 14.398C12.1977 14.4648 12.3478 14.4995 12.5 14.4995C12.6522 14.4995 12.8023 14.4648 12.939 14.398L13.055 14.332L22.5 8.03497Z" fill="#F59E0B"/>
<path d="M19.5003 4.5C20.5803 4.5 21.5273 5.07 22.0553 5.927L12.5003 12.297L2.94531 5.927C3.1961 5.51982 3.5406 5.1785 3.95008 4.93149C4.35957 4.68448 4.82217 4.53894 5.29931 4.507L5.50031 4.5H19.5003Z" fill="#F59E0B"/>
</svg>
